<svg version="1.1" xmlns="http://www.w3.org/2000/svg" xmlns:xlink="http://www.w3.org/1999/xlink" width="800" height="800"><defs/><g transform="scale(2,2)"><g id="background-91797dba"><rect fill="white" stroke="none" x="0" y="0" width="400" height="400" class="dcg-svg-background"/></g><g id="background-images-91797dba"/><g id="graphpaper-91797dba"><g id="axis-91797dba"><g><g><path fill="none" stroke="rgb(0,0,0)" class="dcg-svg-tickmark" paint-order="fill stroke markers" d="" stroke-opacity="0.9" stroke-miterlimit="2" stroke-width="1.5" stroke-dasharray=""/></g></g></g></g><g id="expressions-91797dba"><g id="sketch-91797dba"><title>Expression 1</title><path fill="#6042a6" stroke="none" paint-order="stroke fill markers" d="" fill-opacity="0.4"/><g><path fill="none" stroke="#6042a6" class="dcg-svg-curve" paint-order="fill stroke markers" d=" M 0 400 L 0 400 L 400 400" stroke-linecap="round" stroke-linejoin="round" stroke-miterlimit="10" stroke-width="2.5" stroke-opacity="0.9" stroke-dasharray=""/></g></g><g id="sketch-91797dba"><title>Expression 2</title><path fill="#6042a6" stroke="none" paint-order="stroke fill markers" d="" fill-opacity="0.4"/><g><path fill="none" stroke="#6042a6" class="dcg-svg-curve" paint-order="fill stroke markers" d=" M 0 400 L 0 400 L 0 0" stroke-linecap="round" stroke-linejoin="round" stroke-miterlimit="10" stroke-width="2.5" stroke-opacity="0.9" stroke-dasharray=""/></g></g><g id="sketch-91797dba"><title>Expression 3</title><path fill="#6042a6" stroke="none" paint-order="stroke fill markers" d="" fill-opacity="0.4"/><g><path fill="none" stroke="#6042a6" class="dcg-svg-curve" paint-order="fill stroke markers" d=" M 0 0 L 0 0 L 400 0" stroke-linecap="round" stroke-linejoin="round" stroke-miterlimit="10" stroke-width="2.5" stroke-opacity="0.9" stroke-dasharray=""/></g></g><g id="sketch-91797dba"><title>Expression 4</title><path fill="#6042a6" stroke="none" paint-order="stroke fill markers" d="" fill-opacity="0.4"/><g><path fill="none" stroke="#6042a6" class="dcg-svg-curve" paint-order="fill stroke markers" d=" M 400 400 L 400 400 L 400 0" stroke-linecap="round" stroke-linejoin="round" stroke-miterlimit="10" stroke-width="2.5" stroke-opacity="0.9" stroke-dasharray=""/></g></g><g id="sketch-91797dba"><title>Expression 5</title><path fill="#c74440" stroke="none" paint-order="stroke fill markers" d="" fill-opacity="0.4"/><g><path fill="none" stroke="#c74440" class="dcg-svg-curve" paint-order="fill stroke markers" d=" M 0.8 398.8023968 L 0.8 398.8023968 L 8.36203796203796 387.71550244988 L 16.123076923076923 376.76401532562585 L 23.884115884115882 366.22786290726845 L 31.844155844155843 355.83463237312526 L 40.0031968031968 345.59606796272635 L 48.36123876123876 335.5217539093932 L 56.91828171828172 325.6189326911872 L 65.67432567432567 315.89231884895423 L 74.62937062937063 306.34390837146617 L 83.98241758241758 296.7732235295594 L 93.73346653346653 287.20004334847954 L 103.88251748251747 277.63803772112277 L 114.62857142857142 267.91738983556854 L 125.97162837162837 258.0568428952317 L 138.3096903096903 247.7350726461773 L 152.04075924075923 236.65887126499067 L 167.96083916083916 224.2349234380007 L 188.85594405594404 208.36669183377293 L 200 200" stroke-linecap="round" stroke-linejoin="round" stroke-miterlimit="10" stroke-width="4" stroke-dasharray=""/></g></g><g id="sketch-91797dba"><title>Expression 6</title><path fill="#2d70b3" stroke="none" paint-order="stroke fill markers" d="" fill-opacity="0.4"/><g><path fill="none" stroke="#2d70b3" class="dcg-svg-curve" paint-order="fill stroke markers" d=" M 200 200 L 200 200 L 231.84015984015983 175.91813374714638 L 248.75524475524475 162.7092238125413 L 262.8843156843157 151.2825627701028 L 275.4213786213786 140.7525548461985 L 286.9634365634366 130.66696568414739 L 297.7094905094905 120.8875906904052 L 307.8585414585414 111.2637903855017 L 317.6095904095904 101.62544652006466 L 326.96263736263734 91.98692406629021 L 335.9176823176823 82.3686687581403 L 344.6737262737263 72.5691330590252 L 353.2307692307692 62.59062503413753 L 361.5888111888112 52.438164208097135 L 369.7478521478521 42.11929095009441 L 377.7078921078921 31.643880291932874 L 385.46893106893106 21.023960178979564 L 393.22997002997005 9.985109388649903 L 399.2 1.1976032000000032" stroke-linecap="round" stroke-linejoin="round" stroke-miterlimit="10" stroke-width="4" stroke-dasharray=""/></g></g><g id="sketch-91797dba"><title>Expression 7</title><path fill="#c74440" stroke="none" paint-order="stroke fill markers" d="" fill-opacity="0.4"/><path fill="#c74440" stroke="none" paint-order="stroke fill markers" d="" fill-opacity="0.4"/><path fill="#c74440" stroke="none" class="dcg-svg-region" paint-order="stroke fill markers" d=" M 0 400 L 400 400 L 400 400 L 397.55859375 396.3601514173206 L 389.94140625 385.2851562725846 L 382.2265625 374.48935941793025 L 374.4140625 363.97130959667265 L 366.50390625 353.7284265796188 L 358.3984375 343.63774745725095 L 350.09765625 333.70821774587967 L 341.6015625 323.94650490023196 L 332.8125 314.2512559890747 L 323.73046875 304.6367144852411 L 314.35546875 295.1131407811772 L 304.4921875 285.4998293798417 L 294.140625 275.8199516683817 L 283.10546875 265.9164108976256 L 271.2890625 255.73117383755744 L 258.30078125 244.96410627034493 L 243.45703125 233.10570589383133 L 182.6171875 186.9300629477948 L 163.671875 172.45425991714 L 148.53515625 160.54942133487202 L 135.25390625 149.74405910470523 L 123.2421875 139.60514846257865 L 112.109375 129.83869276940823 L 101.66015625 120.30125735909678 L 91.69921875 110.83524983259849 L 82.12890625 101.36134713538922 L 72.94921875 91.89415696891956 L 64.0625 82.34694004058838 L 55.46875 72.73184955120087 L 47.0703125 62.948725419119 L 38.8671875 53.00278174690902 L 30.859375 42.90160499513149 L 22.94921875 32.52436939510517 L 15.13671875 21.867552975891158 L 7.51953125 11.069916683482006 L 0 0" fill-opacity="0.4"/><g><path fill="none" stroke="#c74440" class="dcg-svg-curve" paint-order="fill stroke markers" d=" M 0 400 L 0 400 L 400 400" stroke-linecap="round" stroke-linejoin="round" stroke-miterlimit="10" stroke-width="2.5" stroke-opacity="0.9" stroke-dasharray=""/></g><g><path fill="none" stroke="#c74440" class="dcg-svg-curve" paint-order="fill stroke markers" d=" M 0 0 L 0 0 L 7.51953125 11.069916683482006 L 15.13671875 21.867552975891158 L 22.94921875 32.52436939510517 L 30.859375 42.90160499513149 L 38.8671875 53.00278174690902 L 47.0703125 62.948725419119 L 55.46875 72.73184955120087 L 64.0625 82.34694004058838 L 72.94921875 91.89415696891956 L 82.12890625 101.36134713538922 L 91.69921875 110.83524983259849 L 101.66015625 120.30125735909678 L 112.109375 129.83869276940823 L 123.2421875 139.60514846257865 L 135.25390625 149.74405910470523 L 148.53515625 160.54942133487202 L 163.671875 172.45425991714 L 182.6171875 186.9300629477948 L 243.45703125 233.10570589383133 L 258.30078125 244.96410627034493 L 271.2890625 255.73117383755744 L 283.10546875 265.9164108976256 L 294.140625 275.8199516683817 L 304.4921875 285.4998293798417 L 314.35546875 295.1131407811772 L 323.73046875 304.6367144852411 L 332.8125 314.2512559890747 L 341.6015625 323.94650490023196 L 350.09765625 333.70821774587967 L 358.3984375 343.63774745725095 L 366.50390625 353.7284265796188 L 374.4140625 363.97130959667265 L 382.2265625 374.48935941793025 L 389.94140625 385.2851562725846 L 397.55859375 396.3601514173206 L 400 400" stroke-linecap="round" stroke-linejoin="round" stroke-miterlimit="10" stroke-width="2.5" stroke-opacity="0.9" stroke-dasharray=""/></g></g><g id="sketch-91797dba"><title>Expression 8</title><path fill="#2d70b3" stroke="none" paint-order="stroke fill markers" d="" fill-opacity="0.4"/><path fill="#2d70b3" stroke="none" paint-order="stroke fill markers" d="" fill-opacity="0.4"/><path fill="#2d70b3" stroke="none" class="dcg-svg-region" paint-order="stroke fill markers" d=" M 0 0 L 7.51953125 11.069916683482006 L 15.13671875 21.867552975891158 L 22.94921875 32.52436939510517 L 30.859375 42.90160499513149 L 38.8671875 53.00278174690902 L 47.0703125 62.948725419119 L 55.46875 72.73184955120087 L 64.0625 82.34694004058838 L 72.94921875 91.89415696891956 L 82.12890625 101.36134713538922 L 91.69921875 110.83524983259849 L 101.66015625 120.30125735909678 L 112.109375 129.83869276940823 L 123.2421875 139.60514846257865 L 135.25390625 149.74405910470523 L 148.53515625 160.54942133487202 L 163.671875 172.45425991714 L 182.6171875 186.9300629477948 L 243.45703125 233.10570589383133 L 258.30078125 244.96410627034493 L 271.2890625 255.73117383755744 L 283.10546875 265.9164108976256 L 294.140625 275.8199516683817 L 304.4921875 285.4998293798417 L 314.35546875 295.1131407811772 L 323.73046875 304.6367144852411 L 332.8125 314.2512559890747 L 341.6015625 323.94650490023196 L 350.09765625 333.70821774587967 L 358.3984375 343.63774745725095 L 366.50390625 353.7284265796188 L 374.4140625 363.97130959667265 L 382.2265625 374.48935941793025 L 389.94140625 385.2851562725846 L 397.55859375 396.3601514173206 L 400 400 L 400 0 L 0 0" fill-opacity="0.4"/><g><path fill="none" stroke="#2d70b3" class="dcg-svg-curve" paint-order="fill stroke markers" d=" M 0 0 L 0 0 L 7.51953125 11.069916683482006 L 15.13671875 21.867552975891158 L 22.94921875 32.52436939510517 L 30.859375 42.90160499513149 L 38.8671875 53.00278174690902 L 47.0703125 62.948725419119 L 55.46875 72.73184955120087 L 64.0625 82.34694004058838 L 72.94921875 91.89415696891956 L 82.12890625 101.36134713538922 L 91.69921875 110.83524983259849 L 101.66015625 120.30125735909678 L 112.109375 129.83869276940823 L 123.2421875 139.60514846257865 L 135.25390625 149.74405910470523 L 148.53515625 160.54942133487202 L 163.671875 172.45425991714 L 182.6171875 186.9300629477948 L 243.45703125 233.10570589383133 L 258.30078125 244.96410627034493 L 271.2890625 255.73117383755744 L 283.10546875 265.9164108976256 L 294.140625 275.8199516683817 L 304.4921875 285.4998293798417 L 314.35546875 295.1131407811772 L 323.73046875 304.6367144852411 L 332.8125 314.2512559890747 L 341.6015625 323.94650490023196 L 350.09765625 333.70821774587967 L 358.3984375 343.63774745725095 L 366.50390625 353.7284265796188 L 374.4140625 363.97130959667265 L 382.2265625 374.48935941793025 L 389.94140625 385.2851562725846 L 397.55859375 396.3601514173206 L 400 400" stroke-linecap="round" stroke-linejoin="round" stroke-miterlimit="10" stroke-width="2.5" stroke-opacity="0.9" stroke-dasharray=""/></g><g><path fill="none" stroke="#2d70b3" class="dcg-svg-curve" paint-order="fill stroke markers" d=" M 0 0 L 0 0 L 400 0" stroke-linecap="round" stroke-linejoin="round" stroke-miterlimit="10" stroke-width="2.5" stroke-opacity="0.9" stroke-dasharray=""/></g></g></g><g id="labels-91797dba"/></g></svg>